<svg id="menuSVG" style="position: relative; height: 80%" viewBox="-131.64020538330078 -147.5312042236328 208.90029907226562 283.6632385253906"><g><path class="b e" d="M -23.53936610241824,60.49704348328601 q 3.9858593023084667,0.7024300313202752 2.156287745979607,-2.9077154293186633 t 2.156287745979607,-2.9077154293186633 t 2.156287745979607,-2.9077154293186633 t 2.156287745979607,-2.9077154293186633 t 2.156287745979607,-2.9077154293186633 t 2.156287745979607,-2.9077154293186633 t 2.156287745979607,-2.9077154293186633 t 2.156287745979607,-2.9077154293186633 t 2.156287745979607,-2.9077154293186633 t 2.156287745979607,-2.9077154293186633 t 2.156287745979607,-2.9077154293186633 t 2.156287745979607,-2.9077154293186633 t 2.156287745979607,-2.9077154293186633 " stroke-width="1" stroke="grey" fill="none"></path><path class="a g" d="M -95.74738265286084,-17.954413605437452 q 3.897179018070601,0.46371368995639384 1.9298425591933557,-2.9322577384739232 t 1.9298425591933557,-2.9322577384739232 t 1.9298425591933557,-2.9322577384739232 t 1.9298425591933557,-2.9322577384739232 t 1.9298425591933557,-2.9322577384739232 t 1.9298425591933557,-2.9322577384739232 t 1.9298425591933557,-2.9322577384739232 t 1.9298425591933557,-2.9322577384739232 t 1.9298425591933557,-2.9322577384739232 t 1.9298425591933557,-2.9322577384739232 t 1.9298425591933557,-2.9322577384739232 t 1.9298425591933557,-2.9322577384739232 t 1.9298425591933557,-2.9322577384739232 " stroke-width="1" stroke="grey" fill="none"></path><path class="b f" d="M -14.659972053218702,93.00755972093086 q 0.5772598264387045,3.754494937437228 3.2344998805252643,1.0399901138239278 t 3.2344998805252643,1.0399901138239278 t 3.2344998805252643,1.0399901138239278 t 3.2344998805252643,1.0399901138239278 t 3.2344998805252643,1.0399901138239278 t 3.2344998805252643,1.0399901138239278 t 3.2344998805252643,1.0399901138239278 t 3.2344998805252643,1.0399901138239278 t 3.2344998805252643,1.0399901138239278 t 3.2344998805252643,1.0399901138239278 t 3.2344998805252643,1.0399901138239278 t 3.2344998805252643,1.0399901138239278 t 3.2344998805252643,1.0399901138239278 " stroke-width="1" stroke="grey" fill="none"></path><path class="a b" d="M -92.62853512431884,27.34206263869696 q -1.4137487830556719,3.59257409038751 2.308559759087739,2.5680286625995414 t 2.308559759087739,2.5680286625995414 t 2.308559759087739,2.5680286625995414 t 2.308559759087739,2.5680286625995414 t 2.308559759087739,2.5680286625995414 t 2.308559759087739,2.5680286625995414 t 2.308559759087739,2.5680286625995414 t 2.308559759087739,2.5680286625995414 t 2.308559759087739,2.5680286625995414 t 2.308559759087739,2.5680286625995414 t 2.308559759087739,2.5680286625995414 t 2.308559759087739,2.5680286625995414 t 2.308559759087739,2.5680286625995414 " stroke-width="1" stroke="grey" fill="none"></path><path class="g h" d="M -27.119105316409662,-95.14785868256098 q 3.0178232488589143,2.3946618340043084 3.1228587667470125,-1.4563938654854078 t 3.1228587667470125,-1.4563938654854078 t 3.1228587667470125,-1.4563938654854078 t 3.1228587667470125,-1.4563938654854078 t 3.1228587667470125,-1.4563938654854078 t 3.1228587667470125,-1.4563938654854078 t 3.1228587667470125,-1.4563938654854078 t 3.1228587667470125,-1.4563938654854078 t 3.1228587667470125,-1.4563938654854078 t 3.1228587667470125,-1.4563938654854078 t 3.1228587667470125,-1.4563938654854078 t 3.1228587667470125,-1.4563938654854078 t 3.1228587667470125,-1.4563938654854078 " stroke-width="1" stroke="grey" fill="none"></path><path class="e g" d="M 3.529814812754271,-25.50744877130969 q 1.236730598896619,-3.5758710696346325 -2.366004616149058,-2.419732906971148 t -2.366004616149058,-2.419732906971148 t -2.366004616149058,-2.419732906971148 t -2.366004616149058,-2.419732906971148 t -2.366004616149058,-2.419732906971148 t -2.366004616149058,-2.419732906971148 t -2.366004616149058,-2.419732906971148 t -2.366004616149058,-2.419732906971148 t -2.366004616149058,-2.419732906971148 t -2.366004616149058,-2.419732906971148 t -2.366004616149058,-2.419732906971148 t -2.366004616149058,-2.419732906971148 t -2.366004616149058,-2.419732906971148 t -2.366004616149058,-2.419732906971148 " stroke-width="1" stroke="grey" fill="none"></path><text class="b e" font-family="Courier New" font-size="10" font-weight="bold" dominant-baseline="middle" text-anchor="middle" x="-8.44535188056099" y="40.14303547805536">1</text><text class="a g" font-family="Courier New" font-size="10" font-weight="bold" dominant-baseline="middle" text-anchor="middle" x="-82.23848473850734" y="-38.48021777475491">2</text><text class="b f" font-family="Courier New" font-size="10" font-weight="bold" dominant-baseline="middle" text-anchor="middle" x="7.981527110458149" y="100.28749051769836">3,4</text><text class="a b" font-family="Courier New" font-size="10" font-weight="bold" dominant-baseline="middle" text-anchor="middle" x="-76.46861681070467" y="45.31826327689375">5</text><text class="g h" font-family="Courier New" font-size="10" font-weight="bold" dominant-baseline="middle" text-anchor="middle" x="-5.259093949180574" y="-105.34261574095883">6</text><text class="e g" font-family="Courier New" font-size="10" font-weight="bold" dominant-baseline="middle" text-anchor="middle" x="-14.215219808363665" y="-43.655445573593305">7</text></g><g><line class="b e" x1="-40.49379315308144" y1="85.03859517381821" x2="-22.73612936266115" y2="61.092703402958634" stroke-width="1" stroke="grey"></line><line class="a g" x1="-110.804881572243" y1="6.743352061380938" x2="-94.91206049653303" y2="-17.404652843698432" stroke-width="1" stroke="grey"></line><line class="b f" x1="-41.6031269546739" y1="85.39493556335549" x2="-14.966069115054067" y2="93.95956003014076" stroke-width="1" stroke="grey"></line><line class="a b" x1="-112.38388164982422" y1="6.862129368445932" x2="-93.37221304557225" y2="28.010600707500974" stroke-width="1" stroke="grey"></line><line class="g h" x1="-52.41410436298258" y1="-82.24773917228534" x2="-26.69644393094836" y2="-94.24157100569457" stroke-width="1" stroke="grey"></line><line class="e g" x1="25.121326367859055" y1="-4.855988508970342" x2="4.244815048896775" y2="-26.206572982245174" stroke-width="1" stroke="grey"></line><line class="e b" x1="25.20956287147364" y1="-3.5612043783622283" x2="7.451899081053347" y2="20.38468739249735" stroke-width="1" stroke="grey"></line><line class="g a" x1="-52.001443592116075" y1="-82.60426608741273" x2="-67.89426466782605" y2="-58.45626118233336" stroke-width="1" stroke="grey"></line><line class="f b" x1="56.95398705191946" y1="117.08404609046103" x2="30.316929212299634" y2="108.51942162367575" stroke-width="1" stroke="grey"></line><line class="b a" x1="-42.040707814091945" y1="85.11147332294959" x2="-61.05237641834391" y2="63.96300198389455" stroke-width="1" stroke="grey"></line><line class="h g" x1="42.741239235544036" y1="-126.62491695589951" x2="17.023578803509817" y2="-114.63108512249028" stroke-width="1" stroke="grey"></line><line class="g e" x1="-52.12176551230138" y1="-83.85315106008723" x2="-31.245254193339097" y2="-62.5025665868124" stroke-width="1" stroke="grey"></line><line class="b e" x1="-42.10026663259562" y1="83.84727533447295" x2="-24.342602842175328" y2="59.90138356361338" stroke-width="1" stroke="grey"></line><line class="a g" x1="-112.47552588489862" y1="5.643830537902898" x2="-96.58270480918864" y2="-18.50417436717647" stroke-width="1" stroke="grey"></line><line class="b f" x1="-40.990932831003164" y1="83.49093494493567" x2="-14.353874991383337" y2="92.05555941172095" stroke-width="1" stroke="grey"></line><line class="a b" x1="-110.8965258073174" y1="5.525053230837904" x2="-91.88485720306544" y2="26.673524569892944" stroke-width="1" stroke="grey"></line><line class="g h" x1="-53.259427133905184" y1="-84.06031452601816" x2="-27.541766701870966" y2="-96.05414635942739" stroke-width="1" stroke="grey"></line><line class="e g" x1="23.691325895574046" y1="-3.4577400870993733" x2="2.8148145766117674" y2="-24.808324560374206" stroke-width="1" stroke="grey"></line><line class="e b" x1="23.60308939195946" y1="-4.752524217707487" x2="5.84542560153917" y2="19.19336755315209" stroke-width="1" stroke="grey"></line><line class="g a" x1="-53.672087904771686" y1="-83.70378761089077" x2="-69.56490898048166" y2="-59.5557827058114" stroke-width="1" stroke="grey"></line><line class="f b" x1="57.566181175590195" y1="115.18004547204121" x2="30.929123335970367" y2="106.61542100525594" stroke-width="1" stroke="grey"></line><line class="b a" x1="-40.553351971585116" y1="83.77439718534157" x2="-59.56502057583708" y2="62.62592584628653" stroke-width="1" stroke="grey"></line><line class="h g" x1="41.89591646462143" y1="-128.43749230963235" x2="16.17825603258721" y2="-116.4436604762231" stroke-width="1" stroke="grey"></line><line class="g e" x1="-53.55176598458638" y1="-82.45490263821627" x2="-32.6752546656241" y2="-61.104318164941425" stroke-width="1" stroke="grey"></line><circle class="b e" r="7" fill="white" stroke-width="1" stroke="grey" cx="-23.53936610241824" cy="60.49704348328601"></circle><circle class="a g" r="7" fill="white" stroke-width="1" stroke="grey" cx="-95.74738265286084" cy="-17.954413605437452"></circle><circle class="b f" r="7" fill="white" stroke-width="1" stroke="grey" cx="-14.659972053218702" cy="93.00755972093086"></circle><circle class="a b" r="7" fill="white" stroke-width="1" stroke="grey" cx="-92.62853512431884" cy="27.34206263869696"></circle><circle class="g h" r="7" fill="white" stroke-width="1" stroke="grey" cx="-27.119105316409662" cy="-95.14785868256098"></circle><circle class="e g" r="7" fill="white" stroke-width="1" stroke="grey" cx="3.529814812754271" cy="-25.50744877130969"></circle><circle class="e b" r="7" fill="white" stroke-width="1" stroke="grey" cx="6.648662341296259" cy="19.78902747282472"></circle><circle class="g a" r="7" fill="white" stroke-width="1" stroke="grey" cx="-68.72958682415386" cy="-59.00602194407238"></circle><circle class="f b" r="7" fill="white" stroke-width="1" stroke="grey" cx="30.623026274135" cy="107.56742131446585"></circle><circle class="b a" r="7" fill="white" stroke-width="1" stroke="grey" cx="-60.3086984970905" cy="63.29446391509054"></circle><circle class="h g" r="7" fill="white" stroke-width="1" stroke="grey" cx="16.600917418048514" cy="-115.53737279935669"></circle><circle class="g e" r="7" fill="white" stroke-width="1" stroke="grey" cx="-31.9602544294816" cy="-61.80344237587691"></circle><text class="b e" font-family="Courier New" font-size="11" font-weight="bold" fill="red" dominant-baseline="middle" text-anchor="middle" x="-23.53936610241824" y="60.49704348328601">β</text><text class="a g" font-family="Courier New" font-size="11" font-weight="bold" fill="red" dominant-baseline="middle" text-anchor="middle" x="-95.74738265286084" y="-17.954413605437452">α</text><text class="b f" font-family="Courier New" font-size="11" font-weight="bold" fill="red" dominant-baseline="middle" text-anchor="middle" x="-14.659972053218702" y="93.00755972093086">β</text><text class="a b" font-family="Courier New" font-size="11" font-weight="bold" fill="red" dominant-baseline="middle" text-anchor="middle" x="-92.62853512431884" y="27.34206263869696">α</text><text class="g h" font-family="Courier New" font-size="11" font-weight="bold" fill="red" dominant-baseline="middle" text-anchor="middle" x="-27.119105316409662" y="-95.14785868256098">η</text><text class="e g" font-family="Courier New" font-size="11" font-weight="bold" fill="red" dominant-baseline="middle" text-anchor="middle" x="3.529814812754271" y="-25.50744877130969">ε</text><text class="e b" font-family="Courier New" font-size="11" font-weight="bold" fill="red" dominant-baseline="middle" text-anchor="middle" x="6.648662341296259" y="19.78902747282472">ε</text><text class="g a" font-family="Courier New" font-size="11" font-weight="bold" fill="red" dominant-baseline="middle" text-anchor="middle" x="-68.72958682415386" y="-59.00602194407238">η</text><text class="f b" font-family="Courier New" font-size="11" font-weight="bold" fill="red" dominant-baseline="middle" text-anchor="middle" x="30.623026274135" y="107.56742131446585">ζ</text><text class="b a" font-family="Courier New" font-size="11" font-weight="bold" fill="red" dominant-baseline="middle" text-anchor="middle" x="-60.3086984970905" y="63.29446391509054">β</text><text class="h g" font-family="Courier New" font-size="11" font-weight="bold" fill="red" dominant-baseline="middle" text-anchor="middle" x="16.600917418048514" y="-115.53737279935669">θ</text><text class="g e" font-family="Courier New" font-size="11" font-weight="bold" fill="red" dominant-baseline="middle" text-anchor="middle" x="-31.9602544294816" y="-61.80344237587691">η</text></g><g><circle class="b" r="10" fill="lightgrey" stroke-width="1" stroke="grey" cx="-41.29702989283853" cy="84.44293525414558"></circle><circle class="a" r="10" fill="lightgrey" stroke-width="1" stroke="grey" cx="-111.64020372857081" cy="6.193591299641918"></circle><circle class="g" r="10" fill="lightgrey" stroke-width="1" stroke="grey" cx="-52.83676574844388" cy="-83.15402684915175"></circle><circle class="e" r="10" fill="lightgrey" stroke-width="1" stroke="grey" cx="24.40632613171655" cy="-4.156864298034858"></circle><circle class="f" r="10" fill="lightgrey" stroke-width="1" stroke="grey" cx="57.26008411375483" cy="116.13204578125112"></circle><circle class="h" r="10" fill="lightgrey" stroke-width="1" stroke="grey" cx="42.31857785008273" cy="-127.53120463276592"></circle><text class="b" font-family="Courier New" font-size="12" font-weight="bold" dominant-baseline="middle" text-anchor="middle" x="-41.29702989283853" y="84.44293525414558">b</text><text class="a" font-family="Courier New" font-size="12" font-weight="bold" dominant-baseline="middle" text-anchor="middle" x="-111.64020372857081" y="6.193591299641918">a</text><text class="g" font-family="Courier New" font-size="12" font-weight="bold" dominant-baseline="middle" text-anchor="middle" x="-52.83676574844388" y="-83.15402684915175">g</text><text class="e" font-family="Courier New" font-size="12" font-weight="bold" dominant-baseline="middle" text-anchor="middle" x="24.40632613171655" y="-4.156864298034858">e</text><text class="f" font-family="Courier New" font-size="12" font-weight="bold" dominant-baseline="middle" text-anchor="middle" x="57.26008411375483" y="116.13204578125112">f</text><text class="h" font-family="Courier New" font-size="12" font-weight="bold" dominant-baseline="middle" text-anchor="middle" x="42.31857785008273" y="-127.53120463276592">h</text></g></svg>