<svg width="2057" height="400" xmlns="http://www.w3.org/2000/svg" xmlns:xlink="http://www.w3.org/1999/xlink" xml:space="preserve" overflow="hidden"><defs><clipPath id="clip0"><rect x="1129" y="1234" width="2057" height="400"/></clipPath></defs><g clip-path="url(#clip0)" transform="translate(-1129 -1234)"><text font-family="Cambria,Cambria_MSFontService,sans-serif" font-weight="400" font-size="73" transform="matrix(1 0 0 1 1173.04 1510)">“<tspan font-weight="bold" font-family="Courier New,Segoe UI,Segoe UI_MSFontService,sans-serif" font-size="73" x="27.5" y="0">babbage</tspan>”</text><path d="M1719 1476.12 1810.57 1476.13 1810.57 1489.88 1719 1489.87ZM1803.69 1462.38 1844.94 1483 1803.69 1503.63Z" fill="#002060"/><rect x="1908.5" y="1423.5" width="583" height="117" stroke="#002060" stroke-width="6.875" stroke-miterlimit="8" fill="#EDEDED"/><text font-family="Segoe UI,Segoe UI_MSFontService,sans-serif" font-weight="400" font-size="64" transform="matrix(1 0 0 1 1964.67 1505)">Enigma Machine</text><path d="M2563 1476.12 2654.57 1476.13 2654.57 1489.88 2563 1489.87ZM2647.69 1462.38 2688.94 1483 2647.69 1503.63Z" fill="#002060"/><text font-family="Cambria,Cambria_MSFontService,sans-serif" font-weight="400" font-size="73" transform="matrix(1 0 0 1 2793 1510)">“<tspan font-weight="bold" font-family="Courier New,Segoe UI,Segoe UI_MSFontService,sans-serif" font-size="73" x="27.5" y="0">egffbhg</tspan>”<tspan font-family="Segoe UI,Segoe UI_MSFontService,sans-serif" font-style="italic" font-size="64" x="-1561.35" y="-194">Plaintext</tspan></text><path d="M1199 1337 1528.94 1337" stroke="#AFA583" stroke-width="2.29167" stroke-miterlimit="8" fill="none" fill-rule="evenodd"/><text font-family="Segoe UI,Segoe UI_MSFontService,sans-serif" font-style="italic" font-weight="400" font-size="64" transform="matrix(1 0 0 1 2829.98 1316)">Ciphertext</text><path d="M2822 1340 3144.67 1340" stroke="#AFA583" stroke-width="2.29167" stroke-miterlimit="8" fill="none" fill-rule="evenodd"/></g></svg>